<?xml version="1.0" encoding="utf-8"?>
<svg version="1.1" xmlns:xlink="http://www.w3.org/1999/xlink" width="127px" height="60px" xmlns="http://www.w3.org/2000/svg">
  <defs>
    <filter x="143px" y="167px" width="127px" height="60px" filterUnits="userSpaceOnUse" id="filter13">
      <feOffset dx="0" dy="0" in="SourceAlpha" result="shadowOffsetInner" />
      <feGaussianBlur stdDeviation="4" in="shadowOffsetInner" result="shadowGaussian" />
      <feComposite in2="shadowGaussian" operator="atop" in="SourceAlpha" result="shadowComposite" />
      <feColorMatrix type="matrix" values="0 0 0 0 0  0 0 0 0 0  0 0 0 0 0  0 0 0 0.12156862745098039 0  " in="shadowComposite" />
    </filter>
    <g id="widget14">
      <path d="M 151.5 180  A 4.5 4.5 0 0 1 156 175.5 L 257 175.5  A 4.5 4.5 0 0 1 261.5 180 L 261.5 214  A 4.5 4.5 0 0 1 257 218.5 L 156 218.5  A 4.5 4.5 0 0 1 151.5 214 L 151.5 180  Z " fill-rule="nonzero" fill="#ffffff" stroke="none" />
      <path d="M 151.5 180  A 4.5 4.5 0 0 1 156 175.5 L 257 175.5  A 4.5 4.5 0 0 1 261.5 180 L 261.5 214  A 4.5 4.5 0 0 1 257 218.5 L 156 218.5  A 4.5 4.5 0 0 1 151.5 214 L 151.5 180  Z " stroke-width="1" stroke="#dedede" fill="none" />
    </g>
  </defs>
  <g transform="matrix(1 0 0 1 -143 -167 )">
    <use xlink:href="#widget14" filter="url(#filter13)" />
    <use xlink:href="#widget14" />
  </g>
</svg>