<?xml version="1.0" encoding="utf-8"?>
<svg version="1.1" xmlns:xlink="http://www.w3.org/1999/xlink" width="127px" height="60px" xmlns="http://www.w3.org/2000/svg">
  <defs>
    <filter x="254px" y="167px" width="127px" height="60px" filterUnits="userSpaceOnUse" id="filter15">
      <feOffset dx="0" dy="0" in="SourceAlpha" result="shadowOffsetInner" />
      <feGaussianBlur stdDeviation="4" in="shadowOffsetInner" result="shadowGaussian" />
      <feComposite in2="shadowGaussian" operator="atop" in="SourceAlpha" result="shadowComposite" />
      <feColorMatrix type="matrix" values="0 0 0 0 0  0 0 0 0 0  0 0 0 0 0  0 0 0 0.12156862745098039 0  " in="shadowComposite" />
    </filter>
    <g id="widget16">
      <path d="M 262.5 179  A 3.5 3.5 0 0 1 266 175.5 L 369 175.5  A 3.5 3.5 0 0 1 372.5 179 L 372.5 215  A 3.5 3.5 0 0 1 369 218.5 L 266 218.5  A 3.5 3.5 0 0 1 262.5 215 L 262.5 179  Z " fill-rule="nonzero" fill="#ffffff" stroke="none" />
      <path d="M 262.5 179  A 3.5 3.5 0 0 1 266 175.5 L 369 175.5  A 3.5 3.5 0 0 1 372.5 179 L 372.5 215  A 3.5 3.5 0 0 1 369 218.5 L 266 218.5  A 3.5 3.5 0 0 1 262.5 215 L 262.5 179  Z " stroke-width="1" stroke="#dedede" fill="none" />
    </g>
  </defs>
  <g transform="matrix(1 0 0 1 -254 -167 )">
    <use xlink:href="#widget16" filter="url(#filter15)" />
    <use xlink:href="#widget16" />
  </g>
</svg>