<?xml version="1.0" encoding="utf-8"?>
<svg version="1.1" xmlns:xlink="http://www.w3.org/1999/xlink" width="37px" height="36px" xmlns="http://www.w3.org/2000/svg">
  <g transform="matrix(1 0 0 1 -18 -9 )">
    <path d="M 25.85044642857143 31.67075892857143  C 28.12165178571429 30.49888392857143  29.98679315476191 28.90848214285714  31.44587053571429 26.89955357142857  C 31.14304315476191 24.823660714285715  30.54082961309524 23.099330357142858  29.63922991071429 21.7265625  C 28.737630208333336 20.353794642857142  27.467819940476193 19.560267857142854  25.829799107142858 19.34598214285714  C 24.907552083333336 20.33705357142857  23.809802827380953 21.11049107142857  22.53655133928571 21.66629464285714  C 21.26329985119048 22.222098214285715  19.91778273809524 22.5  18.5 22.5  C 17.082217261904763 22.5  15.736700148809526 22.222098214285715  14.463448660714285 21.66629464285714  C 13.19019717261905 21.11049107142857  12.092447916666668 20.33705357142857  11.170200892857144 19.34598214285714  C 9.532180059523808 19.560267857142854  8.262369791666668 20.353794642857142  7.360770089285714 21.7265625  C 6.459170386904763 23.099330357142858  5.856956845238096 24.823660714285715  5.554129464285714 26.89955357142857  C 7.013206845238096 28.90848214285714  8.878348214285715 30.49888392857143  11.149553571428571 31.67075892857143  C 13.420758928571429 32.84263392857143  15.87090773809524 33.42857142857143  18.5 33.42857142857143  C 21.129092261904763 33.42857142857143  23.57924107142857 32.84263392857143  25.85044642857143 31.67075892857143  Z M 24.105747767857142 18.31138392857143  C 25.654296875 16.8046875  26.42857142857143 14.986607142857144  26.42857142857143 12.857142857142856  C 26.42857142857143 10.72767857142857  25.654296875 8.909598214285715  24.105747767857142 7.402901785714285  C 22.55719866071429 5.896205357142856  20.68861607142857 5.142857142857144  18.5 5.142857142857144  C 16.31138392857143 5.142857142857144  14.442801339285715 5.896205357142856  12.894252232142856 7.402901785714285  C 11.345703125 8.909598214285715  10.571428571428571 10.72767857142857  10.571428571428571 12.857142857142856  C 10.571428571428571 14.986607142857144  11.345703125 16.8046875  12.894252232142856 18.31138392857143  C 14.442801339285715 19.81808035714286  16.31138392857143 20.57142857142857  18.5 20.57142857142857  C 20.68861607142857 20.57142857142857  22.55719866071429 19.81808035714286  24.105747767857142 18.31138392857143  Z M 35.53404017857143 11.00892857142857  C 36.51134672619048 13.232142857142854  37 15.562499999999998  37 18  C 37 20.437499999999996  36.51134672619048 22.764508928571423  35.53404017857143 24.981026785714285  C 34.55673363095239 27.197544642857142  33.2456287202381 29.112723214285715  31.60072544642857 30.7265625  C 29.95582217261905 32.340401785714285  27.990885416666668 33.62276785714286  25.70591517857143 34.573660714285715  C 23.420944940476193 35.52455357142857  21.01897321428571 36  18.5 36  C 15.994791666666668 36  13.599702380952381 35.52455357142857  11.314732142857144 34.573660714285715  C 9.029761904761905 33.62276785714286  7.061383928571428 32.34375  5.409598214285714 30.73660714285714  C 3.7578125 29.129464285714285  2.443266369047619 27.214285714285715  1.4659598214285714 24.99107142857143  C 0.4886532738095237 22.767857142857142  0 20.437499999999996  0 18  C 0 15.562499999999998  0.4886532738095237 13.232142857142854  1.4659598214285714 11.00892857142857  C 2.443266369047619 8.785714285714283  3.7578125 6.870535714285715  5.409598214285714 5.263392857142856  C 7.061383928571428 3.65625  9.029761904761905 2.377232142857142  11.314732142857144 1.4263392857142851  C 13.599702380952381 0.4754464285714284  15.994791666666668 0  18.5 0  C 21.005208333333336 0  23.40029761904762 0.4754464285714284  25.685267857142858 1.4263392857142851  C 27.9702380952381 2.377232142857142  29.93861607142857 3.65625  31.59040178571429 5.263392857142856  C 33.24218750000001 6.870535714285715  34.55673363095239 8.785714285714283  35.53404017857143 11.00892857142857  Z " fill-rule="nonzero" fill="#000000" stroke="none" transform="matrix(1 0 0 1 18 9 )" />
  </g>
</svg>