<?xml version="1.0" encoding="utf-8"?>
<svg version="1.1" xmlns:xlink="http://www.w3.org/1999/xlink" width="21px" height="19px" xmlns="http://www.w3.org/2000/svg">
  <defs>
    <mask fill="white" id="clip17">
      <path d="M 21 5.500000000000003  C 21 2.42  18.459000000000003 0  15.225 0  C 13.39799999999999 0  11.644499999999994 0.8099999999999987  10.5 2.089999999999999  C 9.355500000000006 0.8099999999999987  7.601999999999999 0  5.775 0  C 2.540999999999997 0  0 2.42  0 5.500000000000003  C 0 9.279999999999996  3.5699999999999963 12.359999999999992  8.977499999999992 17.040000000000006  L 10.5 18.349999999999998  L 12.022500000000008 17.030000000000005  C 17.430000000000003 12.359999999999992  21 9.279999999999996  21 5.500000000000003  Z " fill-rule="evenodd" />
    </mask>
  </defs>
  <g transform="matrix(1 0 0 1 -37 -85 )">
    <path d="M 21 5.500000000000003  C 21 2.42  18.459000000000003 0  15.225 0  C 13.39799999999999 0  11.644499999999994 0.8099999999999987  10.5 2.089999999999999  C 9.355500000000006 0.8099999999999987  7.601999999999999 0  5.775 0  C 2.540999999999997 0  0 2.42  0 5.500000000000003  C 0 9.279999999999996  3.5699999999999963 12.359999999999992  8.977499999999992 17.040000000000006  L 10.5 18.349999999999998  L 12.022500000000008 17.030000000000005  C 17.430000000000003 12.359999999999992  21 9.279999999999996  21 5.500000000000003  Z " fill-rule="nonzero" fill="#ffffff" stroke="none" transform="matrix(1 0 0 1 37 85 )" />
    <path d="M 21 5.500000000000003  C 21 2.42  18.459000000000003 0  15.225 0  C 13.39799999999999 0  11.644499999999994 0.8099999999999987  10.5 2.089999999999999  C 9.355500000000006 0.8099999999999987  7.601999999999999 0  5.775 0  C 2.540999999999997 0  0 2.42  0 5.500000000000003  C 0 9.279999999999996  3.5699999999999963 12.359999999999992  8.977499999999992 17.040000000000006  L 10.5 18.349999999999998  L 12.022500000000008 17.030000000000005  C 17.430000000000003 12.359999999999992  21 9.279999999999996  21 5.500000000000003  Z " stroke-width="2" stroke="#333333" fill="none" transform="matrix(1 0 0 1 37 85 )" mask="url(#clip17)" />
  </g>
</svg>