<?xml version="1.0" encoding="utf-8"?>
<svg version="1.1" xmlns:xlink="http://www.w3.org/1999/xlink" width="20px" height="18px" xmlns="http://www.w3.org/2000/svg">
  <g transform="matrix(1 0 0 1 -89 -85 )">
    <path d="M 14.2578125 2.314453124999999  C 12.937127976190476 1.771484374999999  11.517857142857142 1.5000000000000007  10 1.5000000000000007  C 8.482142857142858 1.5000000000000007  7.062872023809525 1.771484374999999  5.7421875 2.314453124999999  C 4.421502976190476 2.857421875  3.372395833333334 3.589843749999999  2.5948660714285716 4.511718749999999  C 1.8173363095238095 5.433593749999997  1.4285714285714284 6.429687499999999  1.4285714285714284 7.499999999999999  C 1.4285714285714284 8.375  1.6945684523809526 9.208984375  2.2265625 10.001953125  C 2.7585565476190474 10.794921875  3.5081845238095246 11.48046875  4.475446428571429 12.05859375  L 5.446428571428571 12.644531249999998  L 5.1450892857142865 13.76953125  C 4.966517857142857 14.48046875  4.706101190476191 15.15234375  4.363839285714286 15.78515625  C 5.494791666666668 15.29296875  6.517857142857143 14.625  7.4330357142857135 13.78125  L 7.912946428571429 13.335937500000002  L 8.549107142857142 13.406250000000002  C 9.0625 13.46875  9.546130952380953 13.5  10 13.5  C 11.517857142857142 13.5  12.937127976190476 13.228515624999998  14.2578125 12.685546875000002  C 15.578497023809526 12.142578124999996  16.627604166666668 11.41015625  17.405133928571427 10.488281250000002  C 18.18266369047619 9.56640625  18.571428571428573 8.5703125  18.571428571428573 7.499999999999999  C 18.571428571428573 6.429687499999999  18.18266369047619 5.433593749999997  17.405133928571427 4.511718749999999  C 16.627604166666668 3.589843749999999  15.578497023809526 2.857421875  14.2578125 2.314453124999999  Z M 18.660714285714285 3.732421875000001  C 19.553571428571427 4.884765624999998  20 6.140625000000001  20 7.499999999999999  C 20 8.859375  19.553571428571427 10.115234374999998  18.660714285714285 11.267578125  C 17.767857142857142 12.419921874999998  16.555059523809526 13.330078124999998  15.022321428571427 13.998046875  C 13.489583333333336 14.666015625  11.81547619047619 15  10 15  C 9.479166666666668 15  8.939732142857142 14.96875  8.381696428571429 14.90625  C 6.908482142857143 16.2734375  5.1971726190476195 17.21875  3.2477678571428568 17.7421875  C 2.8831845238095246 17.8515625  2.459077380952381 17.9375  1.9754464285714284 18  L 1.9196428571428572 18  C 1.8080357142857142 18  1.7075892857142858 17.958984375  1.6183035714285716 17.876953125  C 1.5290178571428572 17.794921875  1.469494047619048 17.6875  1.4397321428571428 17.5546875  L 1.4397321428571428 17.54296875  C 1.4174107142857144 17.51171875  1.4155505952380953 17.46484375  1.4341517857142858 17.40234375  C 1.4527529761904765 17.33984375  1.4601934523809526 17.30078125  1.4564732142857142 17.28515625  C 1.4527529761904765 17.26953125  1.469494047619048 17.232421875  1.5066964285714284 17.173828125  L 1.5736607142857142 17.068359375  C 1.5736607142857142 17.068359375  1.5997023809523812 17.03515625  1.6517857142857142 16.96875  C 1.703869047619048 16.90234375  1.7336309523809526 16.8671875  1.7410714285714284 16.86328125  C 1.7931547619047623 16.80078125  1.9084821428571428 16.666015625  2.0870535714285716 16.458984375  C 2.265625 16.251953125  2.3939732142857144 16.103515625  2.4720982142857144 16.013671875  C 2.5502232142857144 15.923828124999998  2.6655505952380953 15.769531250000002  2.8180803571428568 15.55078125  C 2.970610119047619 15.33203125  3.0915178571428568 15.132812499999998  3.1808035714285716 14.953125  C 3.2700892857142856 14.7734375  3.3705357142857144 14.54296875  3.4821428571428568 14.26171875  C 3.59375 13.98046875  3.6904761904761907 13.68359375  3.7723214285714284 13.371093750000002  C 2.604166666666667 12.67578125  1.6834077380952381 11.81640625  1.0100446428571428 10.79296875  C 0.3366815476190476 9.769531249999996  0 8.671875  0 7.499999999999999  C 0 6.140625000000001  0.44642857142857145 4.884765624999998  1.3392857142857142 3.732421875000001  C 2.2321428571428577 2.580078124999999  3.4449404761904763 1.669921875  4.977678571428571 1.001953125  C 6.510416666666668 0.333984375  8.18452380952381 0  10 0  C 11.81547619047619 0  13.489583333333336 0.333984375  15.022321428571427 1.001953125  C 16.555059523809526 1.669921875  17.767857142857142 2.580078124999999  18.660714285714285 3.732421875000001  Z " fill-rule="nonzero" fill="#000000" stroke="none" transform="matrix(1 0 0 1 89 85 )" />
  </g>
</svg>