<?xml version="1.0" encoding="utf-8"?>
<svg version="1.1" xmlns:xlink="http://www.w3.org/1999/xlink" width="51px" height="50px" xmlns="http://www.w3.org/2000/svg">
  <g transform="matrix(1 0 0 1 -21 -22 )">
    <path d="M 33.7509765625 5.826822916666669  C 31.1279296875 4.720052083333331  28.377604166666668 4.166666666666669  25.5 4.166666666666669  C 22.622395833333332 4.166666666666669  19.8720703125 4.720052083333331  17.2490234375 5.826822916666669  C 14.625976562500002 6.93359375  12.3681640625 8.414713541666668  10.4755859375 10.270182291666668  C 8.5830078125 12.125651041666668  7.072265625 14.339192708333332  5.943359375 16.910807291666668  C 4.814453125 19.482421875  4.25 22.178819444444443  4.25 25  C 4.25 27.821180555555557  4.814453125 30.517578125  5.943359375 33.089192708333336  C 7.072265625 35.660807291666664  8.5830078125 37.87434895833333  10.4755859375 39.72981770833333  C 12.3681640625 41.58528645833333  14.625976562500002 43.06640625  17.2490234375 44.17317708333333  C 19.8720703125 45.27994791666667  22.622395833333332 45.83333333333333  25.5 45.83333333333333  C 28.377604166666668 45.83333333333333  31.1279296875 45.27994791666667  33.7509765625 44.17317708333333  C 36.3740234375 43.06640625  38.6318359375 41.58528645833333  40.5244140625 39.72981770833333  C 42.4169921875 37.87434895833333  43.927734375 35.660807291666664  45.056640625 33.089192708333336  C 46.185546875 30.517578125  46.75 27.821180555555557  46.75 25  C 46.75 22.178819444444443  46.185546875 19.482421875  45.056640625 16.910807291666668  C 43.927734375 14.339192708333332  42.4169921875 12.125651041666668  40.5244140625 10.270182291666668  C 38.6318359375 8.414713541666668  36.3740234375 6.93359375  33.7509765625 5.826822916666669  Z M 47.580078125 12.451171875  C 49.86002604166666 16.281467013888886  51 20.464409722222214  51 25  C 51 29.53559027777778  49.86002604166666 33.71853298611111  47.580078125 37.548828125  C 45.300130208333336 41.37912326388889  42.206705729166664 44.41189236111111  38.2998046875 46.64713541666667  C 34.392903645833336 48.88237847222223  30.126302083333336 50  25.5 50  C 20.873697916666668 50  16.607096354166668 48.88237847222223  12.7001953125 46.64713541666667  C 8.793294270833334 44.41189236111111  5.699869791666667 41.37912326388889  3.4199218750000004 37.548828125  C 1.1399739583333333 33.71853298611111  0 29.53559027777778  0 25  C 0 20.464409722222214  1.1399739583333333 16.281467013888886  3.4199218750000004 12.451171875  C 5.699869791666667 8.62087673611111  8.793294270833334 5.588107638888884  12.7001953125 3.3528645833333313  C 16.607096354166668 1.1176215277777735  20.873697916666668 0  25.5 0  C 30.126302083333336 0  34.392903645833336 1.1176215277777735  38.2998046875 3.3528645833333313  C 42.206705729166664 5.588107638888884  45.300130208333336 8.62087673611111  47.580078125 12.451171875  Z " fill-rule="nonzero" fill="#000000" stroke="none" transform="matrix(1 0 0 1 21 22 )" />
  </g>
</svg>