<?xml version="1.0" encoding="utf-8"?>
<svg version="1.1" xmlns:xlink="http://www.w3.org/1999/xlink" width="33px" height="28px" xmlns="http://www.w3.org/2000/svg">
  <g transform="matrix(1 0 0 1 -30 -33 )">
    <path d="M 8.8 9.999999999999998  C 8.8 11.447916666666666  9.2640625 12.78125  10.1921875 14  C 8.3359375 14.052083333333334  6.817708333333334 14.718749999999998  5.6375 16  L 3.334375 16  C 2.3947916666666664 16  1.604166666666667 15.7890625  0.9625 15.3671875  C 0.3208333333333333 14.9453125  0 14.328125  0 13.515625000000002  C 0 9.838541666666664  0.7104166666666666 8  2.13125 8  C 2.2 8  2.44921875 8.109375  2.87890625 8.328125  C 3.30859375 8.546875  3.8671875 8.768229166666666  4.5546875 8.9921875  C 5.2421875 9.216145833333332  5.923958333333333 9.328125  6.6000000000000005 9.328125  C 7.367708333333334 9.328125  8.129687500000001 9.208333333333332  8.8859375 8.96875  C 8.828645833333335 9.354166666666663  8.8 9.697916666666666  8.8 9.999999999999998  Z M 28.53984375 22.3359375  C 28.57994791666667 22.861979166666664  28.6 23.401041666666668  28.6 23.953125  C 28.6 25.203125  28.181770833333335 26.190104166666668  27.3453125 26.9140625  C 26.50885416666667 27.638020833333332  25.397395833333334 28  24.0109375 28  L 8.9890625 28  C 7.6026041666666675 28  6.491145833333335 27.638020833333332  5.6546875 26.9140625  C 4.818229166666667 26.190104166666668  4.4 25.203125  4.4 23.953125  C 4.4 23.401041666666668  4.420052083333333 22.861979166666664  4.46015625 22.3359375  C 4.500260416666667 21.809895833333332  4.58046875 21.2421875  4.70078125 20.6328125  C 4.82109375 20.0234375  4.972916666666667 19.458333333333332  5.15625 18.9375  C 5.339583333333334 18.416666666666664  5.5859375 17.908854166666664  5.8953125 17.4140625  C 6.2046875 16.919270833333332  6.559895833333334 16.497395833333332  6.9609375 16.1484375  C 7.361979166666667 15.799479166666668  7.851822916666667 15.520833333333332  8.430468750000001 15.3125  C 9.009114583333334 15.104166666666664  9.647916666666667 15  10.346875 15  C 10.461458333333335 15  10.7078125 15.111979166666666  11.0859375 15.3359375  C 11.4640625 15.559895833333332  11.882291666666667 15.809895833333332  12.340625 16.0859375  C 12.798958333333335 16.361979166666664  13.411979166666667 16.611979166666664  14.1796875 16.8359375  C 14.947395833333335 17.059895833333336  15.720833333333335 17.171875  16.5 17.171875  C 17.27916666666667 17.171875  18.05260416666667 17.059895833333336  18.8203125 16.8359375  C 19.588020833333335 16.611979166666664  20.20104166666667 16.361979166666664  20.659375 16.0859375  C 21.117708333333333 15.809895833333332  21.5359375 15.559895833333332  21.9140625 15.3359375  C 22.2921875 15.111979166666666  22.53854166666667 15  22.653125 15  C 23.352083333333333 15  23.99088541666667 15.104166666666664  24.56953125 15.3125  C 25.148177083333334 15.520833333333332  25.638020833333332 15.799479166666668  26.0390625 16.1484375  C 26.44010416666667 16.497395833333332  26.7953125 16.919270833333332  27.1046875 17.4140625  C 27.4140625 17.908854166666664  27.66041666666667 18.416666666666664  27.84375 18.9375  C 28.027083333333337 19.458333333333332  28.17890625 20.0234375  28.29921875 20.6328125  C 28.41953125 21.2421875  28.499739583333334 21.809895833333332  28.53984375 22.3359375  Z M 9.7109375 1.1718750000000009  C 10.5703125 1.9531250000000004  11 2.895833333333331  11 4.000000000000002  C 11 5.104166666666666  10.5703125 6.046874999999999  9.7109375 6.828124999999998  C 8.8515625 7.609375000000002  7.814583333333334 8  6.6000000000000005 8  C 5.385416666666668 8  4.3484375 7.609375000000002  3.4890625 6.828124999999998  C 2.6296874999999997 6.046874999999999  2.2 5.104166666666666  2.2 4.000000000000002  C 2.2 2.895833333333331  2.6296874999999997 1.9531250000000004  3.4890625 1.1718750000000009  C 4.3484375 0.39062500000000133  5.385416666666668 0  6.6000000000000005 0  C 7.814583333333334 0  8.8515625 0.39062500000000133  9.7109375 1.1718750000000009  Z M 21.166406249999998 5.7578125  C 22.455468749999998 6.9296875  23.099999999999998 8.34375  23.099999999999998 9.999999999999998  C 23.099999999999998 11.656250000000002  22.455468749999998 13.0703125  21.166406249999998 14.2421875  C 19.877343749999998 15.414062500000002  18.321875 16  16.5 16  C 14.678125000000003 16  13.122656250000002 15.414062500000002  11.83359375 14.2421875  C 10.54453125 13.0703125  9.9 11.656250000000002  9.9 9.999999999999998  C 9.9 8.34375  10.54453125 6.9296875  11.83359375 5.7578125  C 13.122656250000002 4.585937499999998  14.678125000000003 4.000000000000002  16.5 4.000000000000002  C 18.321875 4.000000000000002  19.877343749999998 4.585937499999998  21.166406249999998 5.7578125  Z M 30.86875 8  C 32.28958333333334 8  33.00000000000001 9.838541666666664  33 13.515625000000002  C 33.00000000000001 14.328125  32.67916666666667 14.9453125  32.0375 15.3671875  C 31.395833333333336 15.7890625  30.605208333333337 16  29.665625 16  L 27.3625 16  C 26.18229166666667 14.718749999999998  24.6640625 14.052083333333334  22.8078125 14  C 23.7359375 12.78125  24.2 11.447916666666666  24.2 9.999999999999998  C 24.2 9.697916666666666  24.171354166666667 9.354166666666663  24.1140625 8.96875  C 24.8703125 9.208333333333332  25.63229166666667 9.328125  26.400000000000002 9.328125  C 27.07604166666667 9.328125  27.7578125 9.216145833333332  28.4453125 8.9921875  C 29.1328125 8.768229166666666  29.69140625 8.546875  30.12109375 8.328125  C 30.55078125 8.109375  30.8 8  30.86875 8  Z M 29.5109375 1.1718750000000009  C 30.3703125 1.9531250000000004  30.8 2.895833333333331  30.8 4.000000000000002  C 30.8 5.104166666666666  30.3703125 6.046874999999999  29.5109375 6.828124999999998  C 28.6515625 7.609375000000002  27.614583333333336 8  26.400000000000002 8  C 25.18541666666667 8  24.1484375 7.609375000000002  23.2890625 6.828124999999998  C 22.4296875 6.046874999999999  22 5.104166666666666  22 4.000000000000002  C 22 2.895833333333331  22.4296875 1.9531250000000004  23.2890625 1.1718750000000009  C 24.1484375 0.39062500000000133  25.18541666666667 0  26.400000000000002 0  C 27.614583333333336 0  28.6515625 0.39062500000000133  29.5109375 1.1718750000000009  Z " fill-rule="nonzero" fill="#000000" stroke="none" transform="matrix(1 0 0 1 30 33 )" />
  </g>
</svg>