<?xml version="1.0" encoding="utf-8"?>
<svg version="1.1" xmlns:xlink="http://www.w3.org/1999/xlink" width="12px" height="11px" xmlns="http://www.w3.org/2000/svg">
  <g transform="matrix(1 0 0 1 -25 -35 )">
    <path d="M 6.9296875 2.814453125  C 6.9765625 2.857421875  7 2.9123263888888875  7 2.979166666666667  L 7 6.1875  C 7 6.254340277777777  6.9765625 6.309244791666666  6.9296875 6.352213541666666  C 6.8828125 6.395182291666666  6.822916666666668 6.416666666666666  6.75 6.416666666666666  L 4.25 6.416666666666666  C 4.177083333333334 6.416666666666666  4.1171875 6.395182291666666  4.0703125 6.352213541666666  C 4.0234375 6.309244791666666  4 6.254340277777777  4 6.1875  L 4 5.729166666666666  C 4 5.662326388888888  4.0234375 5.607421875  4.0703125 5.564453125  C 4.1171875 5.521484375  4.177083333333334 5.5  4.25 5.5  L 6 5.5  L 6 2.979166666666667  C 6 2.9123263888888875  6.0234375 2.857421875  6.0703125 2.814453125  C 6.117187500000002 2.771484375  6.177083333333334 2.75  6.25 2.75  L 6.75 2.75  C 6.822916666666668 2.75  6.8828125 2.771484375  6.9296875 2.814453125  Z M 9.6796875 7.455078125  C 10.059895833333334 6.8582899305555545  10.25 6.206597222222223  10.25 5.5  C 10.25 4.793402777777777  10.059895833333334 4.141710069444445  9.6796875 3.544921875  C 9.299479166666668 2.9481336805555545  8.783854166666668 2.4754774305555545  8.1328125 2.126953125  C 7.481770833333334 1.7784288194444442  6.770833333333334 1.604166666666667  6 1.604166666666667  C 5.229166666666667 1.604166666666667  4.518229166666667 1.7784288194444442  3.8671875 2.126953125  C 3.2161458333333335 2.4754774305555545  2.7005208333333335 2.9481336805555545  2.3203125 3.544921875  C 1.940104166666667 4.141710069444445  1.75 4.793402777777777  1.75 5.5  C 1.75 6.206597222222223  1.940104166666667 6.8582899305555545  2.3203125 7.455078125  C 2.7005208333333335 8.051866319444443  3.2161458333333335 8.524522569444445  3.8671875 8.873046875  C 4.518229166666667 9.221571180555555  5.229166666666667 9.395833333333332  6 9.395833333333332  C 6.770833333333334 9.395833333333332  7.481770833333334 9.221571180555555  8.1328125 8.873046875  C 8.783854166666668 8.524522569444445  9.299479166666668 8.051866319444443  9.6796875 7.455078125  Z M 11.1953125 2.7392578125  C 11.731770833333332 3.5819227430555545  12 4.5021701388888875  12 5.5  C 12 6.497829861111112  11.731770833333332 7.418077256944443  11.1953125 8.2607421875  C 10.658854166666668 9.103407118055555  9.930989583333334 9.770616319444445  9.01171875 10.262369791666668  C 8.092447916666668 10.75412326388889  7.088541666666667 11  6 11  C 4.911458333333334 11  3.9075520833333335 10.75412326388889  2.98828125 10.262369791666668  C 2.069010416666667 9.770616319444445  1.3411458333333335 9.103407118055555  0.8046875 8.2607421875  C 0.26822916666666663 7.418077256944443  0 6.497829861111112  0 5.5  C 0 4.5021701388888875  0.26822916666666663 3.5819227430555545  0.8046875 2.7392578125  C 1.3411458333333335 1.8965928819444442  2.069010416666667 1.2293836805555545  2.98828125 0.7376302083333329  C 3.9075520833333335 0.24587673611111016  4.911458333333334 0  6 0  C 7.088541666666667 0  8.092447916666668 0.24587673611111016  9.01171875 0.7376302083333329  C 9.930989583333334 1.2293836805555545  10.658854166666668 1.8965928819444442  11.1953125 2.7392578125  Z " fill-rule="nonzero" fill="#000000" stroke="none" transform="matrix(1 0 0 1 25 35 )" />
  </g>
</svg>