<?xml version="1.0" encoding="utf-8"?>
<svg version="1.1" xmlns:xlink="http://www.w3.org/1999/xlink" width="8px" height="11px" xmlns="http://www.w3.org/2000/svg">
  <g transform="matrix(1 0 0 1 -134 -35 )">
    <path d="M 5.4140625 4.962890625  C 5.8046875 4.604817708333333  6 4.172743055555555  6 3.666666666666667  C 6 3.1605902777777772  5.8046875 2.728515625  5.4140625 2.370442708333333  C 5.0234375 2.012369791666667  4.552083333333334 1.833333333333333  4 1.833333333333333  C 3.447916666666667 1.833333333333333  2.9765625 2.012369791666667  2.5859375 2.370442708333333  C 2.1953125 2.728515625  2 3.1605902777777772  2 3.666666666666667  C 2 4.172743055555555  2.1953125 4.604817708333333  2.5859375 4.962890625  C 2.9765625 5.320963541666667  3.447916666666667 5.5  4 5.5  C 4.552083333333334 5.5  5.0234375 5.320963541666667  5.4140625 4.962890625  Z M 6.828125 1.07421875  C 7.609375 1.790364583333333  8 2.6545138888888875  8 3.666666666666667  C 8 4.187065972222221  7.9140625 4.614366319444445  7.7421875 4.948567708333333  L 4.8984375 10.491536458333332  C 4.815104166666667 10.649088541666668  4.69140625 10.77322048611111  4.52734375 10.863932291666668  C 4.36328125 10.954644097222223  4.1875 11  4 11  C 3.8125 11  3.63671875 10.954644097222223  3.47265625 10.863932291666668  C 3.30859375 10.77322048611111  3.1875 10.649088541666668  3.109375 10.491536458333332  L 0.2578125 4.948567708333333  C 0.0859375 4.614366319444445  0 4.187065972222221  0 3.666666666666667  C 0 2.6545138888888875  0.390625 1.790364583333333  1.171875 1.07421875  C 1.9531250000000002 0.3580729166666671  2.8958333333333335 0  4 0  C 5.104166666666667 0  6.046875 0.3580729166666671  6.828125 1.07421875  Z " fill-rule="nonzero" fill="#000000" stroke="none" transform="matrix(1 0 0 1 134 35 )" />
  </g>
</svg>