<?xml version="1.0" encoding="utf-8"?>
<svg version="1.1" xmlns:xlink="http://www.w3.org/1999/xlink" width="13px" height="27px" xmlns="http://www.w3.org/2000/svg">
  <g transform="matrix(1 0 0 1 -21 -605 )">
    <path d="M 12.776632302405497 1.6232464929859707  C 12.925544100801835 1.8036072144288546  13 2.0110220440881728  13 2.2454909819639286  C 13 2.4799599198396782  12.925544100801835 2.687374749498997  12.776632302405497 2.8677354709418834  L 3.9982817869415808 13.5  L 12.776632302405497 24.132264529058116  C 12.925544100801835 24.312625250501004  13 24.520040080160317  13 24.75450901803607  C 13 24.988977955911825  12.925544100801835 25.19639278557114  12.776632302405497 25.37675350701403  L 11.659793814432991 26.72945891783567  C 11.510882016036657 26.90981963927856  11.339633447880873 27  11.146048109965635 27  C 10.952462772050403 27  10.781214203894619 26.90981963927856  10.632302405498281 26.72945891783567  L 0.22336769759450173 14.122244488977955  C 0.0744558991981673 13.941883767535067  0 13.73446893787575  0 13.5  C 0 13.265531062124246  0.0744558991981673 13.05811623246493  0.22336769759450173 12.877755511022045  L 10.632302405498281 0.2705410821643289  C 10.781214203894619 0.09018036072144198  10.952462772050403 0  11.146048109965635 0  C 11.339633447880873 0  11.510882016036657 0.09018036072144198  11.659793814432991 0.2705410821643289  L 12.776632302405497 1.6232464929859707  Z " fill-rule="nonzero" fill="#000000" stroke="none" transform="matrix(1 0 0 1 21 605 )" />
  </g>
</svg>