<?xml version="1.0" encoding="utf-8"?>
<svg version="1.1" xmlns:xlink="http://www.w3.org/1999/xlink" width="12px" height="35px" xmlns="http://www.w3.org/2000/svg">
  <g transform="matrix(1 0 0 1 -392 -605 )">
    <path d="M 11.79381443298969 16.693386773547097  C 11.931271477663232 16.927187708750832  12 17.196058784235134  12 17.5  C 12 17.803941215764862  11.931271477663232 18.07281229124916  11.79381443298969 18.306613226452903  L 2.185567010309278 34.64929859719439  C 2.0481099656357387 34.883099532398134  1.8900343642611683 35  1.711340206185567 35  C 1.532646048109966 35  1.3745704467353952 34.883099532398134  1.2371134020618557 34.64929859719439  L 0.2061855670103093 32.895791583166336  C 0.0687285223367698 32.66199064796259  0 32.39311957247829  0 32.089178356713425  C 0 31.78523714094856  0.0687285223367698 31.516366065464265  0.2061855670103093 31.282565130260522  L 8.309278350515463 17.5  L 0.2061855670103093 3.7174348697394786  C 0.0687285223367698 3.4836339345357366  0 3.2147628590514348  0 2.910821643286574  C 0 2.6068804275217055  0.0687285223367698 2.338009352037404  0.2061855670103093 2.1042084168336657  L 1.2371134020618557 0.3507014028056116  C 1.3745704467353952 0.11690046760186923  1.532646048109966 0  1.711340206185567 0  C 1.8900343642611683 0  2.0481099656357387 0.11690046760186923  2.185567010309278 0.3507014028056116  L 11.79381443298969 16.693386773547097  Z " fill-rule="nonzero" fill="#8c8c8c" stroke="none" transform="matrix(1 0 0 1 392 605 )" />
  </g>
</svg>