<?xml version="1.0" encoding="utf-8"?>
<svg version="1.1" xmlns:xlink="http://www.w3.org/1999/xlink" width="11px" height="10px" xmlns="http://www.w3.org/2000/svg">
  <g transform="matrix(1 0 0 1 -70 -329 )">
    <path d="M 10.629807692307692 3.5853812224322623  C 10.876602564102564 3.623188405797102  11 3.719806763285024  11 3.8752362948960304  C 11 3.967653854232304  10.942708333333334 4.068473009871875  10.828125 4.177693761814744  L 8.428485576923077 6.408317580340265  L 8.996995192307692 9.558916194076874  C 9.001402243589745 9.588321781138417  9.00360576923077 9.630329762654902  9.00360576923077 9.684940138626338  C 9.00360576923077 9.773156899810964  8.98046875 9.84772106700273  8.934194711538462 9.908632640201638  C 8.887920673076923 9.969544213400546  8.820713141025642 10  8.732572115384615 10  C 8.648838141025642 10  8.560697115384615 9.974795211090107  8.468149038461538 9.924385633270322  L 5.5 8.437303087586642  L 2.5318509615384612 9.924385633270322  C 2.4348958333333335 9.974795211090107  2.3467548076923075 10  2.2674278846153846 10  C 2.1748798076923075 10  2.10546875 9.969544213400546  2.0591947115384612 9.908632640201638  C 2.012920673076923 9.84772106700273  1.9897836538461537 9.773156899810964  1.9897836538461537 9.684940138626338  C 1.9897836538461537 9.659735349716446  1.9941907051282053 9.617727368199958  2.0030048076923075 9.558916194076874  L 2.571514423076923 6.408317580340265  L 0.16526442307692307 4.177693761814744  C 0.055088141025641024 4.064272211720227  0 3.963453056080656  0 3.8752362948960304  C 0 3.719806763285024  0.12339743589743588 3.623188405797102  0.37019230769230765 3.5853812224322623  L 3.688701923076923 3.1253938248267166  L 5.176081730769231 0.2583490863264015  C 5.259815705128205 0.08611636210880014  5.367788461538462 0  5.5 0  C 5.632211538461538 0  5.740184294871795 0.08611636210880014  5.82391826923077 0.2583490863264015  L 7.3112980769230775 3.1253938248267166  L 10.629807692307692 3.5853812224322623  Z " fill-rule="nonzero" fill="#757575" stroke="none" transform="matrix(1 0 0 1 70 329 )" />
  </g>
</svg>