<?xml version="1.0" encoding="utf-8"?>
<svg version="1.1" xmlns:xlink="http://www.w3.org/1999/xlink" width="58px" height="44px" xmlns="http://www.w3.org/2000/svg">
  <g transform="matrix(1 0 0 1 -18 -13 )">
    <path d="M 49.66294919454771 25.13795791114575  C 49.68690623709211 25.183684073785397  49.698884758364315 25.25227331774487  49 25.34372564302416  L 49 41.80514419329696  C 49.698884758364315 42.399584307612365  49.47129285419249 42.91400363730839  49.01610904584882 43.34840218238503  C 48.56092523750517 43.782800727461684  48.0218917802561 44  47.39900867410161 44  L 33 44  L 33 30.830865159781762  L 25 30.830865159781762  L 25 44  L 10.60099132589839 44  C 9.978108219743909 44  9.439074762494839 43.782800727461684  8.983890954151176 43.34840218238503  C 8.528707145807518 42.91400363730839  8.301115241635687 42.399584307612365  9 41.80514419329696  L 9 25.34372564302416  C 8.301115241635687 25.320862561704338  8.30710450227179 25.286567939724602  8.31908302354399 25.240841777084956  C 8.331061544816192 25.19511561444531  8.337050805452293 25.160820992465577  8.337050805452293 25.13795791114575  L 29 8.882307092751363  L 49.66294919454771 25.13795791114575  Z M 57.96406443618339 22.171473109898677  C 57.9880214787278 22.48012470771629  57.904171829822396 22.74876591322421  57.71251548946716 22.977396726422448  L 55.48451053283767 25.51519875292284  C 55.29285419248245 25.720966484801252  55.04130524576622 25.846713432060277  54.72986369268897 25.892439594699923  L 54.622057001239156 25.892439594699923  C 54.31061544816192 25.892439594699923  54.05906650144569 25.812418810080537  53.867410161090454 25.652377240841773  L 29 5.864380358534685  L 4.132589838909541 25.652377240841773  C 3.845105328376704 25.83528189140036  3.5576208178438664 25.915302676019742  3.2701363073110286 25.892439594699923  C 2.958694754233788 25.846713432060277  2.707145807517555 25.720966484801252  2.5154894671623294 25.51519875292284  L 0.2874845105328377 22.977396726422448  C 0.0958281701776126 22.74876591322421  0.011978521272201656 22.48012470771629  0.03593556381660471 22.171473109898677  C 0.05989260636100802 21.862821512081062  0.1916563403552252 21.617043387892956  0.4312267657992565 21.434138737334372  L 26.26889714993804 0.8916601714731112  C 27.035522511358945 0.29722005715769884  27.945890128046262 0  29 0  C 30.05410987195374 0  30.964477488641062 0.29722005715769884  31.73110285006196 0.8916601714731112  L 40.49938042131351 7.887763055339047  L 40.49938042131351 1.2003117692907228  C 40.49938042131351 0.8802286308131935  40.60718711276332 0.6173031956352282  40.822800495662946 0.41153546375682204  C 41.03841387856258 0.20576773187841102  41.313919867823216 0.10288386593920551  41.64931846344486 0.10288386593920551  L 48.54894671623296 0.10288386593920551  C 48.88434531185461 0.10288386593920551  49.15985130111524 0.20576773187841102  49.375464684014865 0.41153546375682204  C 49.5910780669145 0.6173031956352282  49.698884758364315 0.8802286308131935  49 1.2003117692907228  L 49 15.192517537022603  L 57.56877323420074 21.434138737334372  C 57.80834365964478 21.617043387892956  57.940107393638996 21.862821512081062  57.96406443618339 22.171473109898677  Z " fill-rule="nonzero" fill="#000000" stroke="none" transform="matrix(1 0 0 1 18 13 )" />
  </g>
</svg>