<?xml version="1.0" encoding="utf-8"?>
<svg version="1.1" xmlns:xlink="http://www.w3.org/1999/xlink" width="29px" height="30px" xmlns="http://www.w3.org/2000/svg">
  <g transform="matrix(1 0 0 1 -36 -35 )">
    <path d="M 9.345703125 24.19921875  C 10.919053819444446 25.149739583333332  12.637152777777779 25.625  14 25.625  L 14 4.375000000000001  C 12.637152777777779 4.375000000000001  10.919053819444446 4.850260416666666  9.345703125 5.80078125  C 7.772352430555556 6.75130208333333  6.526258680555556 8.04036458333333  5.607421875 9.66796875  C 4.688585069444445 11.295572916666666  4.229166666666667 13.072916666666664  4.229166666666667 15  C 4.229166666666667 16.927083333333336  4.688585069444445 18.70442708333333  5.607421875 20.33203125  C 6.526258680555556 21.959635416666664  7.772352430555556 23.248697916666668  9.345703125 24.19921875  Z M 27.055338541666668 7.470703125  C 28.351779513888886 9.76888020833333  29 12.278645833333329  29 15  C 29 17.721354166666668  28.351779513888886 20.231119791666664  27.055338541666668 22.529296875  C 25.758897569444446 24.827473958333332  23.999891493055557 26.647135416666668  21.7783203125 27.98828125  C 19.556749131944446 29.329427083333336  17.13064236111111 30  14.5 30  C 11.86935763888889 30  9.443250868055555 29.329427083333336  7.2216796875 27.98828125  C 5.000108506944445 26.647135416666668  3.241102430555556 24.827473958333332  1.9446614583333335 22.529296875  C 0.648220486111111 20.231119791666664  0 17.721354166666668  0 15  C 0 12.278645833333329  0.648220486111111 9.76888020833333  1.9446614583333335 7.470703125  C 3.241102430555556 5.172526041666666  5.000108506944445 3.3528645833333304  7.2216796875 2.011718749999999  C 9.443250868055555 0.6705729166666641  11.86935763888889 0  14.5 0  C 17.13064236111111 0  19.556749131944446 0.6705729166666641  21.7783203125 2.011718749999999  C 23.999891493055557 3.3528645833333304  25.758897569444446 5.172526041666666  27.055338541666668 7.470703125  Z " fill-rule="nonzero" fill="#000000" stroke="none" transform="matrix(1 0 0 1 36 35 )" />
  </g>
</svg>