<?xml version="1.0" encoding="utf-8"?>
<svg version="1.1" xmlns:xlink="http://www.w3.org/1999/xlink" width="48px" height="44px" xmlns="http://www.w3.org/2000/svg">
  <g transform="matrix(1 0 0 1 -104 -13 )">
    <path d="M 37.40625 25.122395833333336  C 37.802083333333336 24.759548611111107  38 24.329861111111107  38 23.833333333333336  L 38 20.166666666666668  C 38 19.670138888888886  37.802083333333336 19.240451388888886  37.40625 18.877604166666668  C 37.01041666666667 18.514756944444446  36.54166666666667 18.333333333333332  36 18.333333333333332  L 28 18.333333333333332  L 28 11  C 28 10.503472222222218  27.802083333333336 10.073784722222218  27.40625 9.7109375  C 27.01041666666667 9.348090277777777  26.54166666666667 9.166666666666668  26 9.166666666666668  L 22 9.166666666666668  C 21.458333333333336 9.166666666666668  20.989583333333336 9.348090277777777  20.59375 9.7109375  C 20.197916666666668 10.073784722222218  20 10.503472222222218  20 11  L 20 18.333333333333332  L 12 18.333333333333332  C 11.458333333333334 18.333333333333332  10.989583333333334 18.514756944444446  10.59375 18.877604166666668  C 10.197916666666668 19.240451388888886  10 19.670138888888886  10 20.166666666666668  L 10 23.833333333333336  C 10 24.329861111111107  10.197916666666668 24.759548611111107  10.59375 25.122395833333336  C 10.989583333333334 25.485243055555554  11.458333333333334 25.666666666666664  12 25.666666666666664  L 20 25.666666666666664  L 20 33  C 20 33.49652777777778  20.197916666666668 33.92621527777778  20.59375 34.2890625  C 20.989583333333336 34.65190972222222  21.458333333333336 34.83333333333333  22 34.83333333333333  L 26 34.83333333333333  C 26.54166666666667 34.83333333333333  27.01041666666667 34.65190972222222  27.40625 34.2890625  C 27.802083333333336 33.92621527777778  28 33.49652777777778  28 33  L 28 25.666666666666664  L 36 25.666666666666664  C 36.54166666666667 25.666666666666664  37.01041666666667 25.485243055555554  37.40625 25.122395833333336  Z M 44.78125 10.95703125  C 46.92708333333333 14.327690972222218  48 18.00868055555555  48 22  C 48 25.991319444444446  46.92708333333333 29.67230902777777  44.78125 33.04296875  C 42.63541666666667 36.41362847222222  39.723958333333336 39.08246527777778  36.046875 41.04947916666667  C 32.36979166666667 43.01649305555556  28.354166666666668 44  24 44  C 19.645833333333336 44  15.630208333333334 43.01649305555556  11.953125 41.04947916666667  C 8.276041666666668 39.08246527777778  5.364583333333334 36.41362847222222  3.21875 33.04296875  C 1.0729166666666665 29.67230902777777  0 25.991319444444446  0 22  C 0 18.00868055555555  1.0729166666666665 14.327690972222218  3.21875 10.95703125  C 5.364583333333334 7.586371527777777  8.276041666666668 4.917534722222218  11.953125 2.9505208333333317  C 15.630208333333334 0.9835069444444406  19.645833333333336 0  24 0  C 28.354166666666668 0  32.36979166666667 0.9835069444444406  36.046875 2.9505208333333317  C 39.723958333333336 4.917534722222218  42.63541666666667 7.586371527777777  44.78125 10.95703125  Z " fill-rule="nonzero" fill="#000000" stroke="none" transform="matrix(1 0 0 1 104 13 )" />
  </g>
</svg>