<?xml version="1.0" encoding="utf-8"?>
<svg version="1.1" xmlns:xlink="http://www.w3.org/1999/xlink" width="67px" height="43px" xmlns="http://www.w3.org/2000/svg">
  <g transform="matrix(1 0 0 1 -179 -13 )">
    <path d="M 64.06875000000001 23.958451704545453  C 66.02291666666667 26.08605587121212  67.00000000000001 28.524147727272727  67 31.272727272727273  C 67.00000000000001 34.50994318181818  65.69140625000001 37.27379261363636  63.07421875 39.56427556818182  C 60.45703125000001 41.85475852272727  57.29895833333334 43  53.6 43  L 15.633333333333333 43  C 11.329513888888888 43  7.648003472222223 41.66133996212121  4.588802083333333 38.98401988636364  C 1.5296006944444445 36.306699810606055  0 33.084753787878796  0 29.31818181818182  C 0 26.63068181818182  0.8258680555555555 24.172230113636363  2.4776041666666666 21.942826704545453  C 4.129340277777778 19.713423295454547  6.30451388888889 18.049005681818183  9.003124999999999 16.949573863636363  C 8.956597222222221 16.379498106060602  8.933333333333334 15.941761363636363  8.933333333333334 15.636363636363637  C 8.933333333333334 11.320075757575754  10.678125 7.634943181818184  14.167708333333334 4.58096590909091  C 17.657291666666666 1.5269886363636367  21.86805555555556 0  26.8 0  C 30.475694444444443 0  33.808246527777776 0.8958333333333302  36.797656249999996 2.6875  C 39.78706597222223 4.479166666666661  41.96805555555556 6.82054924242424  43.340624999999996 9.711647727272727  C 44.969097222222224 8.449337121212118  46.9 7.818181818181816  49.13333333333333 7.818181818181816  C 51.59930555555556 7.818181818181816  53.7046875 8.581676136363637  55.44947916666667 10.108664772727273  C 57.194270833333334 11.63565340909091  58.06666666666667 13.478219696969694  58.06666666666667 15.636363636363637  C 58.06666666666667 17.163352272727273  57.589756944444446 18.568181818181817  56.635937500000004 19.850852272727273  C 59.63697916666668 20.461647727272727  62.11458333333334 21.830847537878782  64.06875000000001 23.958451704545453  Z " fill-rule="nonzero" fill="#000000" stroke="none" transform="matrix(1 0 0 1 179 13 )" />
  </g>
</svg>