<?xml version="1.0" encoding="utf-8"?>
<svg version="1.1" xmlns:xlink="http://www.w3.org/1999/xlink" width="48px" height="44px" xmlns="http://www.w3.org/2000/svg">
  <g transform="matrix(1 0 0 1 -332 -13 )">
    <path d="M 33.535714285714285 38.70870535714286  C 36.48214285714286 37.2764136904762  38.90178571428572 35.332589285714285  40.79464285714286 32.87723214285714  C 40.40178571428572 30.34002976190476  39.620535714285715 28.23251488095238  38.45089285714286 26.5546875  C 37.28125 24.87686011904762  35.63392857142858 23.906994047619044  33.50892857142857 23.645089285714285  C 32.3125 24.856398809523803  30.888392857142858 25.801711309523803  29.23660714285714 26.481026785714285  C 27.584821428571434 27.16034226190476  25.839285714285715 27.5  24 27.5  C 22.160714285714285 27.5  20.415178571428573 27.16034226190476  18.763392857142858 26.481026785714285  C 17.111607142857146 25.801711309523803  15.6875 24.856398809523803  14.49107142857143 23.645089285714285  C 12.366071428571427 23.906994047619044  10.71875 24.87686011904762  9.549107142857142 26.5546875  C 8.379464285714286 28.23251488095238  7.5982142857142865 30.34002976190476  7.205357142857143 32.87723214285714  C 9.098214285714286 35.332589285714285  11.517857142857142 37.2764136904762  14.464285714285714 38.70870535714286  C 17.410714285714285 40.14099702380952  20.589285714285715 40.85714285714286  24 40.85714285714286  C 27.41071428571429 40.85714285714286  30.589285714285715 40.14099702380952  33.535714285714285 38.70870535714286  Z M 31.272321428571427 22.380580357142858  C 33.28125 20.5390625  34.285714285714285 18.31696428571429  34.285714285714285 15.714285714285712  C 34.285714285714285 13.111607142857142  33.28125 10.889508928571429  31.272321428571427 9.047991071428571  C 29.26339285714286 7.206473214285712  26.839285714285715 6.285714285714288  24 6.285714285714288  C 21.160714285714285 6.285714285714288  18.736607142857142 7.206473214285712  16.72767857142857 9.047991071428571  C 14.71875 10.889508928571429  13.714285714285714 13.111607142857142  13.714285714285714 15.714285714285712  C 13.714285714285714 18.31696428571429  14.71875 20.5390625  16.72767857142857 22.380580357142858  C 18.736607142857142 24.222098214285715  21.160714285714285 25.142857142857142  24 25.142857142857142  C 26.839285714285715 25.142857142857142  29.26339285714286 24.222098214285715  31.272321428571427 22.380580357142858  Z M 46.098214285714285 13.455357142857142  C 47.36607142857143 16.172619047619044  48 19.020833333333332  48 22  C 48 24.979166666666664  47.36607142857143 27.823288690476186  46.098214285714285 30.53236607142857  C 44.83035714285715 33.24144345238095  43.12946428571429 35.58221726190476  40.995535714285715 37.5546875  C 38.861607142857146 39.527157738095234  36.3125 41.09449404761905  33.348214285714285 42.25669642857143  C 30.383928571428577 43.41889880952381  27.26785714285714 44  24 44  C 20.75 44  17.642857142857146 43.41889880952381  14.67857142857143 42.25669642857143  C 11.714285714285715 41.09449404761905  9.160714285714285 39.53125  7.017857142857143 37.566964285714285  C 4.875 35.60267857142857  3.169642857142857 33.26190476190476  1.9017857142857142 30.544642857142858  C 0.6339285714285714 27.827380952380953  0 24.979166666666664  0 22  C 0 19.020833333333332  0.6339285714285714 16.172619047619044  1.9017857142857142 13.455357142857142  C 3.169642857142857 10.738095238095234  4.875 8.397321428571429  7.017857142857143 6.433035714285712  C 9.160714285714285 4.46875  11.714285714285715 2.905505952380951  14.67857142857143 1.7433035714285707  C 17.642857142857146 0.5811011904761902  20.75 0  24 0  C 27.25 0  30.35714285714286 0.5811011904761902  33.32142857142857 1.7433035714285707  C 36.28571428571429 2.905505952380951  38.839285714285715 4.46875  40.98214285714286 6.433035714285712  C 43.12500000000001 8.397321428571429  44.83035714285715 10.738095238095234  46.098214285714285 13.455357142857142  Z " fill-rule="nonzero" fill="#000000" stroke="none" transform="matrix(1 0 0 1 332 13 )" />
  </g>
</svg>