<?xml version="1.0" encoding="utf-8"?>
<svg version="1.1" xmlns:xlink="http://www.w3.org/1999/xlink" width="48px" height="41px" xmlns="http://www.w3.org/2000/svg">
  <g transform="matrix(1 0 0 1 -264 -16 )">
    <path d="M 12.8 14.64285714285714  C 12.8 16.763020833333332  13.474999999999998 18.715401785714285  14.825 20.5  C 12.125 20.576264880952383  9.916666666666668 21.552455357142854  8.2 23.428571428571427  L 4.85 23.428571428571427  C 3.483333333333333 23.428571428571427  2.333333333333334 23.119698660714285  1.4 22.501953125  C 0.46666666666666656 21.884207589285715  0 20.98046875  0 19.790736607142858  C 0 14.40643601190476  1.0333333333333332 11.714285714285714  3.1000000000000005 11.714285714285714  C 3.2 11.714285714285714  3.5625 11.874441964285714  4.1875 12.194754464285714  C 4.8125 12.515066964285714  5.625 12.839192708333332  6.625 13.167131696428573  C 7.625 13.495070684523808  8.616666666666667 13.659040178571427  9.600000000000001 13.659040178571427  C 10.716666666666667 13.659040178571427  11.825000000000001 13.48363095238095  12.925 13.1328125  C 12.841666666666669 13.697172619047613  12.8 14.200520833333332  12.8 14.64285714285714  Z M 41.5125 32.70619419642857  C 41.57083333333334 33.47646949404762  41.6 34.265811011904766  41.6 35.07421875  C 41.6 36.90457589285714  40.99166666666667 38.349795386904766  39.775 39.40987723214286  C 38.55833333333334 40.46995907738095  36.94166666666667 41  34.925000000000004 41  L 13.075 41  C 11.058333333333334 41  9.44166666666667 40.46995907738095  8.225 39.40987723214286  C 7.008333333333334 38.349795386904766  6.4 36.90457589285714  6.4 35.07421875  C 6.4 34.265811011904766  6.429166666666667 33.47646949404762  6.487500000000001 32.70619419642857  C 6.545833333333334 31.935918898809522  6.6625 31.104631696428573  6.8375 30.212332589285715  C 7.012499999999999 29.320033482142854  7.233333333333334 28.492559523809522  7.5 27.729910714285715  C 7.7666666666666675 26.9672619047619  8.125 26.223679315476186  8.575 25.499162946428573  C 9.025 24.77464657738095  9.541666666666668 24.156901041666664  10.125 23.645926339285715  C 10.708333333333334 23.134951636904763  11.420833333333334 22.726934523809522  12.262500000000001 22.421875  C 13.104166666666668 22.116815476190474  14.033333333333335 21.964285714285715  15.05 21.964285714285715  C 15.216666666666669 21.964285714285715  15.575 22.128255208333332  16.125 22.456194196428573  C 16.675 22.78413318452381  17.28333333333333 23.150204613095237  17.95 23.554408482142854  C 18.61666666666667 23.958612351190474  19.508333333333333 24.3246837797619  20.625 24.652622767857146  C 21.741666666666667 24.980561755952383  22.866666666666667 25.14453125  24 25.14453125  C 25.133333333333333 25.14453125  26.258333333333333 24.980561755952383  27.375 24.652622767857146  C 28.49166666666667 24.3246837797619  29.38333333333334 23.958612351190474  30.050000000000004 23.554408482142854  C 30.71666666666667 23.150204613095237  31.325 22.78413318452381  31.875 22.456194196428573  C 32.425 22.128255208333332  32.78333333333334 21.964285714285715  32.949999999999996 21.964285714285715  C 33.96666666666667 21.964285714285715  34.89583333333334 22.116815476190474  35.7375 22.421875  C 36.579166666666666 22.726934523809522  37.291666666666664 23.134951636904763  37.875 23.645926339285715  C 38.45833333333334 24.156901041666664  38.975 24.77464657738095  39.425000000000004 25.499162946428573  C 39.875 26.223679315476186  40.23333333333334 26.9672619047619  40.5 27.729910714285715  C 40.76666666666667 28.492559523809522  40.9875 29.320033482142854  41.1625 30.212332589285715  C 41.3375 31.104631696428573  41.454166666666666 31.935918898809522  41.5125 32.70619419642857  Z M 14.125 1.7159598214285727  C 15.375 2.8599330357142865  16 4.240327380952377  16 5.857142857142859  C 16 7.473958333333332  15.375 8.854352678571427  14.125 9.99832589285714  C 12.875 11.14229910714286  11.366666666666667 11.714285714285714  9.600000000000001 11.714285714285714  C 7.833333333333335 11.714285714285714  6.325 11.14229910714286  5.075 9.99832589285714  C 3.8249999999999997 8.854352678571427  3.2 7.473958333333332  3.2 5.857142857142859  C 3.2 4.240327380952377  3.8249999999999997 2.8599330357142865  5.075 1.7159598214285727  C 6.325 0.5719866071428591  7.833333333333335 0  9.600000000000001 0  C 11.366666666666667 0  12.875 0.5719866071428591  14.125 1.7159598214285727  Z M 30.787499999999998 8.431082589285714  C 32.662499999999994 10.147042410714286  33.599999999999994 12.217633928571427  33.599999999999994 14.64285714285714  C 33.599999999999994 17.068080357142858  32.662499999999994 19.138671875  30.787499999999998 20.854631696428573  C 28.912499999999998 22.570591517857146  26.65 23.428571428571427  24 23.428571428571427  C 21.350000000000005 23.428571428571427  19.087500000000002 22.570591517857146  17.2125 20.854631696428573  C 15.337499999999999 19.138671875  14.399999999999999 17.068080357142858  14.399999999999999 14.64285714285714  C 14.399999999999999 12.217633928571427  15.337499999999999 10.147042410714286  17.2125 8.431082589285714  C 19.087500000000002 6.715122767857141  21.350000000000005 5.857142857142859  24 5.857142857142859  C 26.65 5.857142857142859  28.912499999999998 6.715122767857141  30.787499999999998 8.431082589285714  Z M 44.9 11.714285714285714  C 46.966666666666676 11.714285714285714  48.000000000000014 14.40643601190476  48 19.790736607142858  C 48.000000000000014 20.98046875  47.53333333333333 21.884207589285715  46.6 22.501953125  C 45.66666666666667 23.119698660714285  44.51666666666667 23.428571428571427  43.15 23.428571428571427  L 39.800000000000004 23.428571428571427  C 38.08333333333334 21.552455357142854  35.875 20.576264880952383  33.175 20.5  C 34.525 18.715401785714285  35.199999999999996 16.763020833333332  35.199999999999996 14.64285714285714  C 35.199999999999996 14.200520833333332  35.15833333333333 13.697172619047613  35.075 13.1328125  C 36.175 13.48363095238095  37.28333333333334 13.659040178571427  38.400000000000006 13.659040178571427  C 39.38333333333333 13.659040178571427  40.375 13.495070684523808  41.375 13.167131696428573  C 42.375 12.839192708333332  43.1875 12.515066964285714  43.8125 12.194754464285714  C 44.4375 11.874441964285714  44.8 11.714285714285714  44.9 11.714285714285714  Z M 42.925 1.7159598214285727  C 44.175 2.8599330357142865  44.8 4.240327380952377  44.8 5.857142857142859  C 44.8 7.473958333333332  44.175 8.854352678571427  42.925 9.99832589285714  C 41.675000000000004 11.14229910714286  40.16666666666667 11.714285714285714  38.400000000000006 11.714285714285714  C 36.63333333333334 11.714285714285714  35.125 11.14229910714286  33.875 9.99832589285714  C 32.625 8.854352678571427  32 7.473958333333332  32 5.857142857142859  C 32 4.240327380952377  32.625 2.8599330357142865  33.875 1.7159598214285727  C 35.125 0.5719866071428591  36.63333333333334 0  38.400000000000006 0  C 40.16666666666667 0  41.675000000000004 0.5719866071428591  42.925 1.7159598214285727  Z " fill-rule="nonzero" fill="#000000" stroke="none" transform="matrix(1 0 0 1 264 16 )" />
  </g>
</svg>