<?xml version="1.0" encoding="utf-8"?>
<svg version="1.1" xmlns:xlink="http://www.w3.org/1999/xlink" width="200px" height="6px" xmlns="http://www.w3.org/2000/svg">
  <g transform="matrix(1 0 0 1 -107 -447 )">
    <path d="M 109 450  A 1 1 0 0 1 110 449 L 304 449  A 1 1 0 0 1 305 450 A 1 1 0 0 1 304 451 L 110 451  A 1 1 0 0 1 109 450 Z " fill-rule="nonzero" fill="#1e98d7" stroke="none" fill-opacity="0.25098039215686274" />
    <path d="M 108 450  A 2 2 0 0 1 110 448 L 304 448  A 2 2 0 0 1 306 450 A 2 2 0 0 1 304 452 L 110 452  A 2 2 0 0 1 108 450 Z " stroke-width="2" stroke="#1e98d7" fill="none" stroke-opacity="0.25098039215686274" />
  </g>
</svg>